# xmcd CD database file
#
# Track frame offsets:
#	150
#	12412
#	24226
#	36533
#	49262
#	59354
#	71430
#	82196
#	95774
#	111430
#	124859
#	140026
#	151858
#	166442
#	179695
#	192254
#	205743
#	215523
#	227872
#	240210
#	258237
#	274639
#	285575
#	297091
#
# Disc length: 4080 seconds
#
# Revision: 0
# Processed by: cddbd v1.5.2PL0 Copyright (c) Steve Scherf et al.
# Submitted via: CDex 1.70beta2
#
DISCID=690fee18
DTITLE=Diverse Best Of Country and Western - Best of Country and Western
DYEAR=2007
DGENRE=Country
TTITLE0=Kenny Rogers - Reuben James
TTITLE1=Dolly Parton - Making belive
TTITLE2=Johnny Cash - I walk the line
TTITLE3=Lynn Anderson - (I never promissed you a) rose garden
TTITLE4=Porter Wagoner - Green green grass of home
TTITLE5=Johnny Paycheck - Take this job  an shove it
TTITLE6=Jim Reeves - He´ll have to go
TTITLE7=Willie Nelson and Leon Russel - Heartbreak hotel
TTITLE8=Billie Jo Spears - Blanket on the ground
TTITLE9=Glen Campbell - Rhinestone Cowboy
TTITLE10=The Bellamy Brothers - Redneck girl
TTITLE11=Don Williams - Tulsa Time
TTITLE12=Johnny Burnette - Ballad of one eyed jack
TTITLE13=Gordon Lightfoot - Long way back home
TTITLE14=Leroy Van Dyke - The auctioneer
TTITLE15=Merle Haggard - Walk a mile in my shoes
TTITLE16=Hank Locklin - Please help me I´m falling
TTITLE17=Barbara Mandrell - Midnight oil
TTITLE18=Charlie Rich - Behind closed doors
TTITLE19=Ricky Nelson - Garden party
TTITLE20=Tina Turner - Lay it down
TTITLE21=Johnny Cash - Cry! Cry! Cry!
TTITLE22=Roger Miller - Walkin´ in the sunshine
TTITLE23=Elvis Presley - Blue moon of Kentucky
EXTD=YEAR: 2007
EXTT0=
EXTT1=
EXTT2=
EXTT3=
EXTT4=
EXTT5=
EXTT6=
EXTT7=
EXTT8=
EXTT9=
EXTT10=
EXTT11=
EXTT12=
EXTT13=
EXTT14=
EXTT15=
EXTT16=
EXTT17=
EXTT18=
EXTT19=
EXTT20=
EXTT21=
EXTT22=
EXTT23=
PLAYORDER=
